HIERARCHY
ROOT Pelvis
{
	OFFSET 0.000000 0.000000 0.000000
	CHANNELS 6 Xposition Yposition Zposition Zrotation Yrotation Xrotation 
	JOINT Left_hip
	{
		OFFSET 0.067986 -0.089946 -0.007639
		CHANNELS 3 Zrotation Yrotation Xrotation
		JOINT Left_knee
		{
			OFFSET 0.036308 -0.388288 -0.004016
			CHANNELS 3 Zrotation Yrotation Xrotation
			JOINT Left_ankle
			{
				OFFSET -0.012264 -0.413250 -0.042878
				CHANNELS 3 Zrotation Yrotation Xrotation
				JOINT Left_foot
				{
					OFFSET 0.024043 -0.058563 0.118570
					CHANNELS 3 Zrotation Yrotation Xrotation
					End Site
					{
						OFFSET 0.000000 0.000000 0.000000
					}
				}
			}
		}
	}
	JOINT Right_hip
	{
		OFFSET -0.065648 -0.089374 -0.003858
		CHANNELS 3 Zrotation Yrotation Xrotation
		JOINT Right_knee
		{
			OFFSET -0.042132 -0.395021 -0.006361
			CHANNELS 3 Zrotation Yrotation Xrotation
			JOINT Right_ankle
			{
				OFFSET 0.014805 -0.413264 -0.041054
				CHANNELS 3 Zrotation Yrotation Xrotation
				JOINT Right_foot
				{
					OFFSET -0.021758 -0.049013 0.121832
					CHANNELS 3 Zrotation Yrotation Xrotation
					End Site
					{
						OFFSET 0.000000 0.000000 0.000000
					}
				}
			}
		}
	}
	JOINT Spine1
	{
		OFFSET -0.002755 0.104406 -0.022277
		CHANNELS 3 Zrotation Yrotation Xrotation
		JOINT Spine2
		{
			OFFSET 0.004136 0.129393 -0.002186
			CHANNELS 3 Zrotation Yrotation Xrotation
			JOINT Spine3
			{
				OFFSET 0.001906 0.049304 0.025578
				CHANNELS 3 Zrotation Yrotation Xrotation
				JOINT Neck
				{
					OFFSET -0.004620 0.210958 -0.044063
					CHANNELS 3 Zrotation Yrotation Xrotation
					JOINT Head
					{
						OFFSET 0.003833 0.067393 0.052435
						CHANNELS 3 Zrotation Yrotation Xrotation
						End Site
						{
							OFFSET 0.000000 0.000000 0.000000
						}
					}
				}
				JOINT Left_collar
				{
					OFFSET 0.070771 0.116689 -0.037192
					CHANNELS 3 Zrotation Yrotation Xrotation
					JOINT Left_shoulder
					{
						OFFSET 0.080652 0.031596 -0.005617
						CHANNELS 3 Zrotation Yrotation Xrotation
						JOINT Left_elbow
						{
							OFFSET 0.262654 -0.015020 -0.027939
							CHANNELS 3 Zrotation Yrotation Xrotation
							JOINT Left_wrist
							{
								OFFSET 0.250438 0.010062 -0.000990
								CHANNELS 3 Zrotation Yrotation Xrotation
								JOINT Left_palm
								{
									OFFSET 0.081198 -0.010037 -0.013706
									CHANNELS 3 Zrotation Yrotation Xrotation
									End Site
									{
										OFFSET 0.000000 0.000000 0.000000
									}
								}
							}
						}
					}
				}
				JOINT Right_collar
				{
					OFFSET -0.072972 0.115556 -0.040762
					CHANNELS 3 Zrotation Yrotation Xrotation
					JOINT Right_shoulder
					{
						OFFSET -0.082917 0.031841 -0.006673
						CHANNELS 3 Zrotation Yrotation Xrotation
						JOINT Right_elbow
						{
							OFFSET -0.252882 -0.013790 -0.020410
							CHANNELS 3 Zrotation Yrotation Xrotation
							JOINT Right_wrist
							{
								OFFSET -0.255570 0.009163 -0.005138
								CHANNELS 3 Zrotation Yrotation Xrotation
								JOINT Right_palm
								{
									OFFSET -0.080804 -0.007282 -0.010415
									CHANNELS 3 Zrotation Yrotation Xrotation
									End Site
									{
										OFFSET 0.000000 0.000000 0.000000
									}
								}
							}
						}
					}
				}
			}
		}
	}
}
MOTION
Frames: 14
Frame Time: 0.100000
-0.094973 0.000462 0.007409 176.036892 15.289937 -13.373776 9.278540 -0.095348 -9.309560 -6.068237 -9.417336 5.775609 -8.774994 6.405096 -3.534565 10.322705 9.778080 -3.160646 -6.450574 -6.648023 4.995708 6.796468 8.254108 10.701666 10.064182 -9.450716 -15.535398 -8.061719 9.572609 4.433557 0.394385 5.568659 12.051945 -6.131264 0.590714 6.714794 -1.662290 2.794779 0.149836 -5.629794 9.259650 -4.455701 -4.182049 4.869656 -3.677671 -6.529870 -17.268737 -9.151218 -11.328474 -18.956409 0.820084 23.585383 -64.022366 -27.970689 -4.157439 -12.594318 -23.964949 -5.224773 1.074827 -1.714856 -4.736694 21.255647 -9.033346 -6.211661 20.798141 -13.539814 -35.222780 57.445705 -47.789558 3.127635 7.308902 -21.600662 7.402678 3.269734 -3.089147 
-0.124382 -0.007554 0.018745 174.568531 15.520463 -11.701848 8.937985 -0.429171 -9.146808 -5.884358 -9.289197 3.805232 -7.894673 6.034077 -3.731331 10.574907 10.191088 -3.381750 -7.205347 -6.538170 1.412880 7.501758 8.105580 15.255783 13.261770 -8.699637 -12.076960 -11.774745 10.817867 1.875513 -0.070516 5.399045 11.861325 -6.433056 0.739439 7.222016 -1.872030 2.748305 0.162395 -7.290266 9.671368 -6.257791 -4.508751 5.605039 -4.620465 -4.192443 -19.890814 -10.040718 -12.767094 -22.612165 2.020233 29.859532 -70.437111 -33.149114 -3.713257 -13.260126 -26.627395 -6.103296 0.724371 -0.913284 -7.629925 21.964851 -10.150389 -6.813048 21.376783 -13.575630 -48.901389 62.516316 -59.290269 3.667886 8.289081 -21.297687 8.321733 3.809616 -3.861321 
-0.149369 -0.014185 0.030707 173.283326 15.399114 -10.219565 8.865466 -0.606832 -9.277911 -5.886903 -8.810858 2.989842 -7.009407 5.504629 -4.145803 10.791222 10.784126 -3.776895 -7.831059 -6.282695 -1.713680 8.075826 8.203662 18.966828 16.002377 -7.519690 -7.993792 -14.672126 11.021269 -0.530260 -0.533177 5.223919 11.774173 -6.693762 0.966718 7.419901 -2.096919 2.749704 0.049938 -8.488960 10.188818 -7.509290 -4.938818 6.504399 -5.248496 -2.318053 -21.371563 -10.590867 -15.846119 -25.382766 4.609101 42.864652 -78.336824 -43.702086 -3.366275 -14.091495 -29.278636 -7.182172 0.392994 -0.494789 -10.062816 22.215626 -11.062091 -5.899157 23.004239 -12.710396 -69.615774 66.905639 -77.067007 4.041594 9.126513 -21.469312 9.471617 4.451836 -4.763098 
-0.169838 -0.020949 0.042816 171.911018 15.630331 -8.810279 9.059062 -0.824279 -10.059227 -5.846620 -7.992340 3.185157 -6.579514 4.681005 -4.188547 10.913563 11.244560 -4.273806 -7.926932 -5.962025 -2.752789 7.882687 8.730975 18.890586 17.497559 -6.314585 -4.646983 -16.064206 10.218081 -1.748509 -0.710645 5.330316 11.476367 -6.799869 0.990057 7.625476 -2.155327 2.783705 -0.077075 -9.351609 10.305316 -8.058401 -5.106973 7.303447 -5.903972 -1.384636 -22.284462 -10.607447 -20.363277 -27.252653 8.163173 81.281486 -84.787270 -78.986113 -3.097886 -15.304162 -31.568253 -7.922283 0.261813 0.094995 -11.836665 22.055618 -11.461625 -3.951247 24.426414 -10.859435 -97.625353 68.891902 -101.136031 4.259311 10.399381 -21.948881 10.214307 4.971066 -5.189109 
-0.185747 -0.025832 0.053624 170.946168 16.323152 -7.631863 9.043365 -1.262805 -10.909764 -5.785653 -7.304836 3.763665 -6.632792 3.685500 -4.365448 11.346324 11.727692 -4.772493 -8.191528 -6.763602 -2.177588 6.710440 6.537817 16.408676 17.324151 -7.846980 -4.593303 -16.799219 9.733728 -1.805191 -0.642113 5.738428 11.334671 -7.036385 0.932929 7.871841 -2.129234 2.777925 -0.024607 -10.058922 9.867636 -8.027120 -5.048517 7.764003 -6.180594 -1.304608 -22.927205 -9.914877 -24.781009 -28.150742 11.663767 161.150648 -83.900329 -156.828233 -2.849734 -16.553827 -35.443693 -7.387272 0.377559 1.677758 -12.901789 21.821090 -11.330538 -1.626368 24.726526 -8.315389 -125.036761 66.439499 -125.063753 4.463837 11.921088 -22.588445 9.488998 5.165771 -4.683165 
-0.196251 -0.028362 0.061112 170.378512 16.804096 -6.736012 8.914912 -1.670991 -11.236199 -5.558927 -6.780135 3.544503 -6.271414 2.854112 -4.548509 11.468723 12.264167 -4.610545 -8.357299 -7.831671 -2.177236 5.751037 3.825216 13.907327 18.571089 -10.636775 0.215701 -18.785399 10.071626 -3.020311 -0.786433 6.075190 11.619061 -7.213161 1.132799 8.236078 -2.012425 2.814749 -0.120735 -10.433613 9.073343 -8.297599 -4.861946 8.134933 -6.560044 -1.838335 -22.936598 -9.008594 -27.050952 -27.934835 13.376751 -177.824298 -79.344612 -175.867336 -3.381070 -17.528325 -35.975621 -7.525485 -0.246048 1.667763 -13.024582 21.793378 -11.075665 -0.055221 24.670706 -6.558154 -139.037238 62.706052 -136.587113 4.918944 13.005223 -20.890302 9.797986 5.691341 -4.757200 
-0.201766 -0.030237 0.064731 169.854715 17.274912 -6.017786 9.045812 -1.687890 -11.630699 -5.465468 -6.774080 3.046028 -6.319228 2.489153 -4.306233 11.712334 12.555618 -4.634825 -8.157034 -7.832121 -3.138524 5.725219 3.228004 14.426656 18.889407 -10.863894 1.536471 -19.209601 9.864005 -3.542903 -0.926767 6.081575 12.198598 -7.234042 1.253719 8.473805 -1.994729 2.815600 -0.131252 -10.580428 8.804881 -8.417817 -4.833251 7.809941 -7.014416 -2.039245 -22.571526 -8.730142 -27.970132 -27.470268 13.614361 -178.226364 -77.951460 -174.739216 -3.563764 -17.384000 -35.808017 -7.840773 -0.531473 1.218604 -12.922547 21.555852 -10.994276 1.265785 24.744844 -5.969061 -142.500783 60.126789 -138.967958 4.796812 13.152969 -20.661278 10.296360 5.961852 -4.998228 
-0.204230 -0.031174 0.066702 169.366546 17.889973 -5.578672 9.322447 -1.603571 -12.149234 -5.548202 -7.025193 2.879370 -6.281858 2.219789 -4.185596 11.643781 12.496605 -4.508916 -8.147917 -7.804750 -3.655716 5.880628 3.422991 14.640970 19.221211 -10.352850 2.348095 -19.196716 9.575407 -3.699487 -1.059050 6.141219 12.677386 -7.090657 1.085885 8.513295 -1.939908 2.753441 -0.102791 -10.453213 8.681097 -7.985431 -4.440797 7.388972 -6.920150 -1.989603 -22.634946 -8.815747 -27.984232 -27.658375 13.053802 177.814108 -79.478716 -170.879533 -3.464343 -16.831198 -34.847551 -8.301082 -0.750364 0.774528 -12.654262 21.289130 -10.921998 2.050518 24.487006 -6.042688 -141.026843 59.822530 -137.075520 4.699037 13.013030 -20.202391 10.783227 6.216191 -5.219768 
-0.204682 -0.030968 0.068540 169.339251 17.871973 -5.302738 9.395123 -1.677070 -12.153524 -5.548178 -7.214042 2.546186 -6.001974 2.378597 -4.477644 11.516521 12.285865 -4.213327 -8.269406 -7.590265 -4.207823 5.917699 3.876773 15.363339 19.593293 -9.984663 2.650900 -19.357614 9.524526 -3.943028 -1.376033 6.177277 12.755350 -7.045383 1.106546 8.512740 -2.009078 2.788106 -0.082924 -10.572472 8.689664 -8.065082 -4.349717 6.887620 -6.719103 -1.860085 -22.449956 -8.976902 -27.638224 -27.785172 12.513260 172.256844 -80.480027 -165.686069 -3.354805 -16.348972 -34.632091 -8.607398 -0.867530 0.718166 -12.057575 21.213219 -10.787077 2.700487 24.470872 -6.164931 -137.176549 60.619175 -133.498372 4.957467 12.713659 -19.750746 11.061705 6.354173 -5.443986 
-0.203143 -0.031043 0.069946 169.451924 17.984081 -5.260791 9.309421 -1.745039 -12.082266 -5.429628 -7.327717 2.452346 -5.853109 2.430306 -4.515561 11.387547 12.125186 -4.161175 -8.132633 -7.665618 -4.831903 5.858108 3.446650 16.558150 19.679241 -10.327114 2.516335 -19.835465 9.817204 -4.187492 -1.595300 6.128215 12.855348 -7.112468 1.149748 8.342655 -2.113363 2.777814 -0.195128 -10.889806 8.563448 -8.972803 -4.346650 6.444270 -6.629520 -2.236536 -22.503598 -9.002641 -27.205794 -27.904172 11.800563 164.925683 -81.470392 -158.604901 -3.634263 -15.953864 -33.856734 -8.737036 -1.045797 0.716413 -11.064581 21.296109 -10.503988 3.404298 23.888713 -6.051758 -133.426323 61.330541 -129.789085 5.545255 12.599333 -18.664124 11.098055 6.421885 -5.392023 
-0.201801 -0.030222 0.072236 169.923939 18.208611 -5.431422 8.866125 -1.814938 -11.614746 -5.402083 -7.673541 2.389872 -5.698160 2.464608 -4.764816 11.233890 12.415743 -4.231685 -8.344627 -7.602508 -4.751395 5.718189 3.532981 17.437989 19.853392 -10.865593 1.767926 -20.523294 10.592521 -4.599947 -1.680857 5.999475 12.582026 -7.285339 1.250023 7.835920 -2.254535 2.687310 -0.450568 -11.317194 8.467599 -10.891320 -4.743029 5.981151 -6.941223 -2.932167 -22.710033 -8.902354 -26.815220 -28.058470 11.363302 154.562460 -83.701713 -149.629480 -3.481959 -15.266574 -33.602687 -8.767976 -1.114965 0.545239 -9.895302 21.760203 -10.213887 4.353006 23.735973 -5.079853 -127.760765 63.216089 -126.490182 4.792443 11.801079 -20.657055 11.402683 6.401690 -5.640822 
-0.200589 -0.029921 0.074787 170.477981 18.239977 -5.938973 8.356084 -1.872691 -10.740746 -5.395266 -7.903972 2.391573 -5.827934 2.595860 -5.047290 11.242472 12.093813 -4.120278 -8.621200 -7.869120 -4.274314 5.563124 3.248742 18.224553 20.230670 -11.655234 0.948696 -21.753142 11.660196 -4.995935 -1.496360 5.848489 11.947666 -7.470340 1.468266 7.065854 -2.289262 2.790653 -0.943280 -11.493550 8.118478 -13.941444 -4.912900 5.738450 -7.323902 -4.110899 -23.310948 -8.738012 -26.334513 -27.804068 11.204230 125.429039 -86.872931 -121.786428 -4.178470 -15.353215 -32.183584 -8.178727 -1.035243 0.728757 -8.457218 23.104517 -9.866992 3.928468 23.681649 -4.700977 -115.438689 68.658026 -116.293295 6.029261 11.560164 -19.239796 10.478449 5.983433 -5.264378 
-0.198493 -0.028026 0.077782 171.243956 17.889638 -6.923008 7.869500 -1.670388 -8.699908 -5.482858 -8.668921 1.584001 -5.844045 3.099661 -6.031115 11.062088 11.879822 -3.503005 -8.657303 -7.623525 -3.275715 5.361342 3.264581 19.337830 18.804743 -11.277826 -3.303208 -20.129351 11.765696 -3.905648 -1.355565 5.644118 10.800001 -7.458471 1.820237 6.318175 -2.138360 3.062826 -1.439648 -9.470389 7.831836 -15.424094 -4.216696 4.936041 -7.650457 -5.050116 -23.643130 -8.808845 -25.897562 -27.229575 11.205054 32.896129 -85.562134 -30.536454 -5.332563 -15.349207 -30.673105 -6.350495 -0.241047 1.070970 -7.879608 25.129930 -9.905592 3.439334 25.477199 -4.787378 -87.826511 74.454703 -90.889829 7.644918 10.805264 -18.861391 8.032895 4.970618 -4.233094 
-0.194084 -0.025949 0.079443 172.074116 17.362471 -7.773448 7.675835 -1.205677 -6.840366 -5.721654 -9.025505 0.623633 -6.241023 3.363660 -6.828926 10.711355 11.272636 -2.195972 -8.495275 -7.716408 -1.306321 5.668438 2.988703 14.985963 16.728128 -9.518570 -7.295170 -16.621202 11.190738 -0.955698 -0.856915 5.649671 9.442699 -7.202726 1.876846 5.545893 -1.724213 3.425496 -2.065973 -5.936677 7.091194 -15.417503 -2.441378 3.408111 -7.551723 -6.385598 -23.685795 -8.836718 -25.565369 -26.059254 11.262260 13.435535 -78.365687 -13.545904 -5.935397 -15.543367 -29.541182 -4.482169 0.656646 1.522141 -7.351072 27.633230 -10.114061 2.502095 29.010618 -5.491171 -43.065059 75.198847 -48.365433 8.751268 10.206258 -19.135133 5.440324 4.043730 -2.732249 
